<svg xmlns="http://www.w3.org/2000/svg" xmlns:xlink="http://www.w3.org/1999/xlink" width="500" zoomAndPan="magnify" viewBox="0 0 375 374.999991" height="500" preserveAspectRatio="xMidYMid meet" version="1.0"><defs><clipPath id="6a7d688bac"><path d="M 42.65625 42 L 332.15625 42 L 332.15625 375 L 42.65625 375 Z M 42.65625 42 " clip-rule="nonzero"/></clipPath></defs><g clip-path="url(#6a7d688bac)"><path fill="#b894c4" d="M 332.15625 68.21875 C 332.15625 54.125 320.695312 42.65625 306.613281 42.65625 L 68.199219 42.65625 C 54.117188 42.65625 42.65625 54.125 42.65625 68.21875 L 42.65625 349.382812 C 42.65625 363.476562 54.117188 374.945312 68.199219 374.945312 L 306.613281 374.945312 C 320.695312 374.945312 332.15625 363.476562 332.15625 349.382812 Z M 332.15625 68.21875 " fill-opacity="1" fill-rule="nonzero"/></g><path fill="#f4e49d" d="M 238.496094 25.617188 L 228.898438 25.617188 C 225.117188 10.933594 211.757812 0.0546875 195.921875 0.0546875 L 178.890625 0.0546875 C 163.054688 0.0546875 149.703125 10.933594 145.90625 25.617188 L 136.316406 25.617188 C 122.234375 25.617188 110.773438 37.085938 110.773438 51.175781 L 110.773438 76.738281 C 110.773438 81.441406 114.589844 85.257812 119.289062 85.257812 L 255.523438 85.257812 C 260.234375 85.257812 264.039062 81.441406 264.039062 76.738281 L 264.039062 51.175781 C 264.039062 37.085938 252.578125 25.617188 238.496094 25.617188 Z M 238.496094 25.617188 " fill-opacity="1" fill-rule="nonzero"/></svg>